<svg xmlns="http://www.w3.org/2000/svg" style="display:none">

  <!-- ── GAME ACTIONS ── -->

  <symbol id="icon-crime" viewBox="0 0 24 24" fill="none">
    <path d="M6 3h12l2 4-8 14L4 7z" stroke="currentColor" stroke-width="1.5" stroke-linejoin="round"/>
    <path d="M4 7h16" stroke="currentColor" stroke-width="1.5" stroke-linecap="round"/>
    <path d="M12 7l-2 4h4l-2 4" stroke="currentColor" stroke-width="1.5" stroke-linecap="round" stroke-linejoin="round"/>
  </symbol>

  <symbol id="icon-gym" viewBox="0 0 24 24" fill="none">
    <rect x="2" y="10" width="3" height="4" rx="1" stroke="currentColor" stroke-width="1.5"/>
    <rect x="19" y="10" width="3" height="4" rx="1" stroke="currentColor" stroke-width="1.5"/>
    <rect x="5" y="8" width="3" height="8" rx="1" stroke="currentColor" stroke-width="1.5"/>
    <rect x="16" y="8" width="3" height="8" rx="1" stroke="currentColor" stroke-width="1.5"/>
    <path d="M8 12h8" stroke="currentColor" stroke-width="1.5" stroke-linecap="round"/>
  </symbol>

  <symbol id="icon-city" viewBox="0 0 24 24" fill="none">
    <path d="M3 21V9l6-4v16" stroke="currentColor" stroke-width="1.5" stroke-linejoin="round"/>
    <path d="M9 21V7l6-4v18" stroke="currentColor" stroke-width="1.5" stroke-linejoin="round"/>
    <path d="M15 21V11l6 2v8" stroke="currentColor" stroke-width="1.5" stroke-linejoin="round"/>
    <path d="M3 21h18" stroke="currentColor" stroke-width="1.5" stroke-linecap="round"/>
    <path d="M6 12v2M6 16v2" stroke="currentColor" stroke-width="1.5" stroke-linecap="round"/>
    <path d="M11 12v2M11 16v2" stroke="currentColor" stroke-width="1.5" stroke-linecap="round"/>
    <path d="M18 15v2" stroke="currentColor" stroke-width="1.5" stroke-linecap="round"/>
  </symbol>

  <symbol id="icon-job" viewBox="0 0 24 24" fill="none">
    <rect x="2" y="7" width="20" height="14" rx="2" stroke="currentColor" stroke-width="1.5"/>
    <path d="M16 7V5a2 2 0 0 0-2-2h-4a2 2 0 0 0-2 2v2" stroke="currentColor" stroke-width="1.5" stroke-linejoin="round"/>
    <path d="M12 12v4M10 14h4" stroke="currentColor" stroke-width="1.5" stroke-linecap="round"/>
  </symbol>

  <symbol id="icon-company" viewBox="0 0 24 24" fill="none">
    <path d="M3 21V5a2 2 0 0 1 2-2h14a2 2 0 0 1 2 2v16" stroke="currentColor" stroke-width="1.5"/>
    <path d="M3 21h18" stroke="currentColor" stroke-width="1.5" stroke-linecap="round"/>
    <rect x="9" y="14" width="6" height="7" stroke="currentColor" stroke-width="1.5"/>
    <rect x="6" y="7" width="3" height="3" stroke="currentColor" stroke-width="1.5"/>
    <rect x="15" y="7" width="3" height="3" stroke="currentColor" stroke-width="1.5"/>
    <rect x="6" y="12" width="3" height="3" stroke="currentColor" stroke-width="1.5"/>
    <rect x="15" y="12" width="3" height="3" stroke="currentColor" stroke-width="1.5"/>
  </symbol>

  <symbol id="icon-properties" viewBox="0 0 24 24" fill="none">
    <path d="M3 21V10l9-7 9 7v11" stroke="currentColor" stroke-width="1.5" stroke-linejoin="round"/>
    <path d="M3 21h18" stroke="currentColor" stroke-width="1.5" stroke-linecap="round"/>
    <rect x="9" y="14" width="6" height="7" stroke="currentColor" stroke-width="1.5"/>
    <path d="M9 10h6" stroke="currentColor" stroke-width="1.5" stroke-linecap="round"/>
  </symbol>

  <symbol id="icon-inventory" viewBox="0 0 24 24" fill="none">
    <path d="M5 7h14l-1 13H6L5 7z" stroke="currentColor" stroke-width="1.5" stroke-linejoin="round"/>
    <path d="M9 7V5a3 3 0 0 1 6 0v2" stroke="currentColor" stroke-width="1.5"/>
    <path d="M9 11h6" stroke="currentColor" stroke-width="1.5" stroke-linecap="round"/>
  </symbol>

  <symbol id="icon-travel" viewBox="0 0 24 24" fill="none">
    <path d="M22 16.5H2" stroke="currentColor" stroke-width="1.5" stroke-linecap="round"/>
    <path d="M5 16.5V19" stroke="currentColor" stroke-width="1.5" stroke-linecap="round"/>
    <path d="M19 16.5V19" stroke="currentColor" stroke-width="1.5" stroke-linecap="round"/>
    <path d="M2 10.5l3-5h10l5 5" stroke="currentColor" stroke-width="1.5" stroke-linejoin="round"/>
    <path d="M9 5.5v5" stroke="currentColor" stroke-width="1.5" stroke-linecap="round"/>
    <path d="M15 8.5H2" stroke="currentColor" stroke-width="1.5" stroke-linecap="round"/>
  </symbol>

  <symbol id="icon-missions" viewBox="0 0 24 24" fill="none">
    <path d="M9 11l3 3 8-8" stroke="currentColor" stroke-width="1.5" stroke-linecap="round" stroke-linejoin="round"/>
    <path d="M20 12v7a2 2 0 0 1-2 2H6a2 2 0 0 1-2-2V5a2 2 0 0 1 2-2h9" stroke="currentColor" stroke-width="1.5" stroke-linecap="round"/>
  </symbol>

  <symbol id="icon-casino" viewBox="0 0 24 24" fill="none">
    <rect x="3" y="3" width="8" height="8" rx="1.5" stroke="currentColor" stroke-width="1.5"/>
    <rect x="13" y="3" width="8" height="8" rx="1.5" stroke="currentColor" stroke-width="1.5"/>
    <rect x="3" y="13" width="8" height="8" rx="1.5" stroke="currentColor" stroke-width="1.5"/>
    <rect x="13" y="13" width="8" height="8" rx="1.5" stroke="currentColor" stroke-width="1.5"/>
    <circle cx="7" cy="7" r="1" fill="currentColor"/>
    <circle cx="17" cy="7" r="1" fill="currentColor"/>
    <circle cx="14.5" cy="9.5" r="1" fill="currentColor"/>
    <circle cx="19.5" cy="9.5" r="1" fill="currentColor"/>
    <circle cx="14.5" cy="14.5" r="1" fill="currentColor"/>
    <circle cx="19.5" cy="14.5" r="1" fill="currentColor"/>
    <circle cx="14.5" cy="19.5" r="1" fill="currentColor"/>
    <circle cx="19.5" cy="19.5" r="1" fill="currentColor"/>
    <circle cx="7" cy="17" r="1" fill="currentColor"/>
    <circle cx="7" cy="21" r="0.001" fill="none"/>
  </symbol>

  <symbol id="icon-market" viewBox="0 0 24 24" fill="none">
    <path d="M6 2L3 6v14a2 2 0 0 0 2 2h14a2 2 0 0 0 2-2V6l-3-4z" stroke="currentColor" stroke-width="1.5" stroke-linejoin="round"/>
    <path d="M3 6h18" stroke="currentColor" stroke-width="1.5" stroke-linecap="round"/>
    <path d="M16 10a4 4 0 0 1-8 0" stroke="currentColor" stroke-width="1.5" stroke-linecap="round"/>
  </symbol>

  <!-- ── SOCIAL / GANG ── -->

  <symbol id="icon-gang" viewBox="0 0 24 24" fill="none">
    <circle cx="9" cy="7" r="3" stroke="currentColor" stroke-width="1.5"/>
    <circle cx="17" cy="9" r="2.5" stroke="currentColor" stroke-width="1.5"/>
    <path d="M2 21v-1a7 7 0 0 1 14 0v1" stroke="currentColor" stroke-width="1.5" stroke-linecap="round"/>
    <path d="M17 13a5 5 0 0 1 5 5v1" stroke="currentColor" stroke-width="1.5" stroke-linecap="round"/>
  </symbol>

  <symbol id="icon-linked-gangs" viewBox="0 0 24 24" fill="none">
    <path d="M10 13a5 5 0 0 0 7.54.54l3-3a5 5 0 0 0-7.07-7.07l-1.72 1.71" stroke="currentColor" stroke-width="1.5" stroke-linecap="round" stroke-linejoin="round"/>
    <path d="M14 11a5 5 0 0 0-7.54-.54l-3 3a5 5 0 0 0 7.07 7.07l1.71-1.71" stroke="currentColor" stroke-width="1.5" stroke-linecap="round" stroke-linejoin="round"/>
  </symbol>

  <symbol id="icon-gang-wars" viewBox="0 0 24 24" fill="none">
    <path d="M14.5 17.5L3 6V3h3l11.5 11.5" stroke="currentColor" stroke-width="1.5" stroke-linecap="round" stroke-linejoin="round"/>
    <path d="M13 19l6-6 2 5-3 3-5-2z" stroke="currentColor" stroke-width="1.5" stroke-linejoin="round"/>
    <path d="M11 5l-6 6-2-5 3-3 5 2z" stroke="currentColor" stroke-width="1.5" stroke-linejoin="round"/>
  </symbol>

  <symbol id="icon-forum" viewBox="0 0 24 24" fill="none">
    <path d="M21 15a2 2 0 0 1-2 2H7l-4 4V5a2 2 0 0 1 2-2h14a2 2 0 0 1 2 2z" stroke="currentColor" stroke-width="1.5" stroke-linejoin="round"/>
    <path d="M8 10h8M8 14h5" stroke="currentColor" stroke-width="1.5" stroke-linecap="round"/>
  </symbol>

  <symbol id="icon-events" viewBox="0 0 24 24" fill="none">
    <path d="M12 2l3.09 6.26L22 9.27l-5 4.87 1.18 6.88L12 17.77l-6.18 3.25L7 14.14 2 9.27l6.91-1.01L12 2z" stroke="currentColor" stroke-width="1.5" stroke-linejoin="round"/>
  </symbol>

  <symbol id="icon-newspaper" viewBox="0 0 24 24" fill="none">
    <path d="M4 22h16a2 2 0 0 0 2-2V4a2 2 0 0 0-2-2H8a2 2 0 0 0-2 2v16a2 2 0 0 1-2 2zm0 0a2 2 0 0 1-2-2v-9c0-1.1.9-2 2-2h2" stroke="currentColor" stroke-width="1.5" stroke-linejoin="round"/>
    <path d="M18 14h-8M18 18h-8M18 10h-8M10 6h8" stroke="currentColor" stroke-width="1.5" stroke-linecap="round"/>
  </symbol>

  <symbol id="icon-calendar" viewBox="0 0 24 24" fill="none">
    <rect x="3" y="4" width="18" height="18" rx="2" stroke="currentColor" stroke-width="1.5"/>
    <path d="M16 2v4M8 2v4M3 10h18" stroke="currentColor" stroke-width="1.5" stroke-linecap="round"/>
    <path d="M8 14h.01M12 14h.01M16 14h.01M8 18h.01M12 18h.01" stroke="currentColor" stroke-width="2" stroke-linecap="round"/>
  </symbol>

  <!-- ── STATUS / SYSTEM ── -->

  <symbol id="icon-hospital" viewBox="0 0 24 24" fill="none">
    <rect x="3" y="3" width="18" height="18" rx="2" stroke="currentColor" stroke-width="1.5"/>
    <path d="M12 8v8M8 12h8" stroke="currentColor" stroke-width="1.5" stroke-linecap="round"/>
  </symbol>

  <symbol id="icon-jail" viewBox="0 0 24 24" fill="none">
    <rect x="3" y="3" width="18" height="18" rx="2" stroke="currentColor" stroke-width="1.5"/>
    <path d="M8 3v18M12 3v18M16 3v18" stroke="currentColor" stroke-width="1.5" stroke-linecap="round"/>
    <path d="M3 9h18M3 15h18" stroke="currentColor" stroke-width="1.5"/>
  </symbol>

  <symbol id="icon-federal-jail" viewBox="0 0 24 24" fill="none">
    <path d="M3 21h18M5 21V9M19 21V9M12 3L2 9h20L12 3z" stroke="currentColor" stroke-width="1.5" stroke-linejoin="round" stroke-linecap="round"/>
    <rect x="9" y="13" width="6" height="8" stroke="currentColor" stroke-width="1.5"/>
    <path d="M10 13v8M14 13v8" stroke="currentColor" stroke-width="1" stroke-linecap="round"/>
  </symbol>

  <!-- ── STATS / HUD ── -->

  <symbol id="icon-money" viewBox="0 0 24 24" fill="none">
    <circle cx="12" cy="12" r="9" stroke="currentColor" stroke-width="1.5"/>
    <path d="M12 7v10M9.5 9.5a2.5 2.5 0 0 1 5 0c0 1.5-1 2-2.5 2.5S9.5 13 9.5 14.5a2.5 2.5 0 0 0 5 0" stroke="currentColor" stroke-width="1.5" stroke-linecap="round"/>
  </symbol>

  <symbol id="icon-points" viewBox="0 0 24 24" fill="none">
    <path d="M12 2l2.4 7.4H22l-6.2 4.5 2.4 7.4L12 17l-6.2 4.3 2.4-7.4L2 9.4h7.6z" stroke="currentColor" stroke-width="1.5" stroke-linejoin="round"/>
  </symbol>

  <symbol id="icon-level" viewBox="0 0 24 24" fill="none">
    <path d="M12 2L2 7l10 5 10-5-10-5z" stroke="currentColor" stroke-width="1.5" stroke-linejoin="round"/>
    <path d="M2 17l10 5 10-5" stroke="currentColor" stroke-width="1.5" stroke-linecap="round" stroke-linejoin="round"/>
    <path d="M2 12l10 5 10-5" stroke="currentColor" stroke-width="1.5" stroke-linecap="round" stroke-linejoin="round"/>
  </symbol>

  <symbol id="icon-life" viewBox="0 0 24 24" fill="none">
    <path d="M12 21C12 21 4 14.5 4 9a8 8 0 0 1 16 0c0 5.5-8 12-8 12z" stroke="currentColor" stroke-width="1.5" stroke-linejoin="round"/>
    <path d="M9 9h6M12 6v6" stroke="currentColor" stroke-width="1.5" stroke-linecap="round"/>
  </symbol>

  <symbol id="icon-nerve" viewBox="0 0 24 24" fill="none">
    <path d="M2 12h4l3-8 4 16 3-8h6" stroke="currentColor" stroke-width="1.5" stroke-linecap="round" stroke-linejoin="round"/>
  </symbol>

  <symbol id="icon-energy" viewBox="0 0 24 24" fill="none">
    <path d="M13 2L4.09 12.96A1 1 0 0 0 5 14.5h6.5L11 22l8.91-10.96A1 1 0 0 0 19 9.5H12.5L13 2z" stroke="currentColor" stroke-width="1.5" stroke-linejoin="round"/>
  </symbol>

  <!-- ── OUTCOMES ── -->

  <symbol id="icon-special" viewBox="0 0 24 24" fill="none">
    <path d="M12 2l2.4 7.4H22l-6.2 4.5 2.4 7.4L12 17l-6.2 4.3 2.4-7.4L2 9.4h7.6z" stroke="currentColor" stroke-width="1.5" stroke-linejoin="round"/>
    <circle cx="12" cy="12" r="2" fill="currentColor"/>
  </symbol>

  <symbol id="icon-success" viewBox="0 0 24 24" fill="none">
    <circle cx="12" cy="12" r="9" stroke="currentColor" stroke-width="1.5"/>
    <path d="M8 12l3 3 5-5" stroke="currentColor" stroke-width="1.5" stroke-linecap="round" stroke-linejoin="round"/>
  </symbol>

  <symbol id="icon-fail" viewBox="0 0 24 24" fill="none">
    <circle cx="12" cy="12" r="9" stroke="currentColor" stroke-width="1.5"/>
    <path d="M15 9l-6 6M9 9l6 6" stroke="currentColor" stroke-width="1.5" stroke-linecap="round"/>
  </symbol>

  <symbol id="icon-crit-fail" viewBox="0 0 24 24" fill="none">
    <path d="M12 3L2 21h20L12 3z" stroke="currentColor" stroke-width="1.5" stroke-linejoin="round"/>
    <path d="M12 10v4M12 17v.5" stroke="currentColor" stroke-width="1.5" stroke-linecap="round"/>
  </symbol>

  <symbol id="icon-lock" viewBox="0 0 24 24" fill="none">
    <rect x="5" y="11" width="14" height="10" rx="2" stroke="currentColor" stroke-width="1.5"/>
    <path d="M8 11V7a4 4 0 0 1 8 0v4" stroke="currentColor" stroke-width="1.5" stroke-linecap="round"/>
    <circle cx="12" cy="16" r="1.5" fill="currentColor"/>
  </symbol>

  <symbol id="icon-unlock" viewBox="0 0 24 24" fill="none">
    <rect x="5" y="11" width="14" height="10" rx="2" stroke="currentColor" stroke-width="1.5"/>
    <path d="M8 11V7a4 4 0 0 1 8 0" stroke="currentColor" stroke-width="1.5" stroke-linecap="round"/>
    <circle cx="12" cy="16" r="1.5" fill="currentColor"/>
  </symbol>

  <!-- ── MISC / LANDING ── -->

  <symbol id="icon-brain" viewBox="0 0 24 24" fill="none">
    <path d="M9.5 2A5.5 5.5 0 0 0 4 7.5c0 .98.26 1.9.71 2.69A3.5 3.5 0 0 0 4 13a3.5 3.5 0 0 0 3.5 3.5h.5v3h4v-3h.5A3.5 3.5 0 0 0 16 13a3.5 3.5 0 0 0-.71-2.81A5.5 5.5 0 0 0 9.5 2z" stroke="currentColor" stroke-width="1.5" stroke-linejoin="round"/>
    <path d="M12 6v4M9.5 8.5l5 0" stroke="currentColor" stroke-width="1.5" stroke-linecap="round"/>
  </symbol>

  <symbol id="icon-globe" viewBox="0 0 24 24" fill="none">
    <circle cx="12" cy="12" r="9" stroke="currentColor" stroke-width="1.5"/>
    <path d="M12 3c-2.5 2.5-4 5.5-4 9s1.5 6.5 4 9" stroke="currentColor" stroke-width="1.5" stroke-linecap="round"/>
    <path d="M12 3c2.5 2.5 4 5.5 4 9s-1.5 6.5-4 9" stroke="currentColor" stroke-width="1.5" stroke-linecap="round"/>
    <path d="M3 12h18" stroke="currentColor" stroke-width="1.5" stroke-linecap="round"/>
    <path d="M3 8h18M3 16h18" stroke="currentColor" stroke-width="1" stroke-linecap="round" stroke-dasharray="2 3"/>
  </symbol>

  <symbol id="icon-handshake" viewBox="0 0 24 24" fill="none">
    <path d="M9 11l3 3L22 4" stroke="currentColor" stroke-width="1.5" stroke-linecap="round" stroke-linejoin="round"/>
    <path d="M21 12v7a2 2 0 0 1-2 2H5a2 2 0 0 1-2-2V5a2 2 0 0 1 2-2h11" stroke="currentColor" stroke-width="1.5" stroke-linecap="round"/>
  </symbol>

  <symbol id="icon-shield" viewBox="0 0 24 24" fill="none">
    <path d="M12 3L4 7v5c0 5 4 9.3 8 10.3 4-1 8-5.3 8-10.3V7l-8-4z" stroke="currentColor" stroke-width="1.5" stroke-linejoin="round"/>
    <path d="M9 12l2 2 4-4" stroke="currentColor" stroke-width="1.5" stroke-linecap="round" stroke-linejoin="round"/>
  </symbol>

  <symbol id="icon-free" viewBox="0 0 24 24" fill="none">
    <path d="M12 2C6.48 2 2 6.48 2 12s4.48 10 10 10 10-4.48 10-10S17.52 2 12 2z" stroke="currentColor" stroke-width="1.5"/>
    <path d="M8 12h8M12 8v8" stroke="currentColor" stroke-width="1.5" stroke-linecap="round"/>
  </symbol>

  <symbol id="icon-clock" viewBox="0 0 24 24" fill="none">
    <circle cx="12" cy="12" r="9" stroke="currentColor" stroke-width="1.5"/>
    <path d="M12 7v5l3 3" stroke="currentColor" stroke-width="1.5" stroke-linecap="round" stroke-linejoin="round"/>
  </symbol>

  <symbol id="icon-tools" viewBox="0 0 24 24" fill="none">
    <path d="M14.7 6.3a1 1 0 0 0 0 1.4l1.6 1.6a1 1 0 0 0 1.4 0l3.77-3.77a6 6 0 0 1-7.94 7.94l-6.91 6.91a2.12 2.12 0 0 1-3-3l6.91-6.91a6 6 0 0 1 7.94-7.94l-3.76 3.76z" stroke="currentColor" stroke-width="1.5" stroke-linecap="round" stroke-linejoin="round"/>
  </symbol>

  <symbol id="icon-chart" viewBox="0 0 24 24" fill="none">
    <path d="M3 21h18" stroke="currentColor" stroke-width="1.5" stroke-linecap="round"/>
    <path d="M7 14l4-4 4 4 4-7" stroke="currentColor" stroke-width="1.5" stroke-linecap="round" stroke-linejoin="round"/>
    <circle cx="7" cy="14" r="1.5" fill="currentColor"/>
    <circle cx="11" cy="10" r="1.5" fill="currentColor"/>
    <circle cx="15" cy="14" r="1.5" fill="currentColor"/>
    <circle cx="19" cy="7" r="1.5" fill="currentColor"/>
  </symbol>

  <symbol id="icon-attack" viewBox="0 0 24 24" fill="none">
    <path d="M14.5 17.5L3 6V3h3l11.5 11.5" stroke="currentColor" stroke-width="1.5" stroke-linecap="round" stroke-linejoin="round"/>
    <path d="M13 19l6-6 2 5-3 3-5-2z" stroke="currentColor" stroke-width="1.5" stroke-linejoin="round"/>
  </symbol>

  <symbol id="icon-bounty" viewBox="0 0 24 24" fill="none">
    <circle cx="12" cy="12" r="9" stroke="currentColor" stroke-width="1.5"/>
    <circle cx="12" cy="12" r="4" stroke="currentColor" stroke-width="1.5"/>
    <circle cx="12" cy="12" r="1" fill="currentColor"/>
    <path d="M12 3v2M12 19v2M3 12h2M19 12h2" stroke="currentColor" stroke-width="1.5" stroke-linecap="round"/>
  </symbol>

  <symbol id="icon-education" viewBox="0 0 24 24" fill="none">
    <path d="M12 3L2 8l10 5 10-5-10-5z" stroke="currentColor" stroke-width="1.5" stroke-linejoin="round"/>
    <path d="M6 10.5V17l6 3 6-3v-6.5" stroke="currentColor" stroke-width="1.5" stroke-linecap="round" stroke-linejoin="round"/>
    <path d="M22 8v5" stroke="currentColor" stroke-width="1.5" stroke-linecap="round"/>
  </symbol>

  <symbol id="icon-black-market" viewBox="0 0 24 24" fill="none">
    <circle cx="12" cy="12" r="9" stroke="currentColor" stroke-width="1.5" stroke-dasharray="3 2"/>
    <path d="M9 9h6l-1 6H10L9 9z" stroke="currentColor" stroke-width="1.5" stroke-linejoin="round"/>
    <path d="M9 9l-1-3h8l-1 3" stroke="currentColor" stroke-width="1.5" stroke-linejoin="round"/>
  </symbol>

  <symbol id="icon-territory" viewBox="0 0 24 24" fill="none">
    <path d="M3 6l9-3 9 3v8c0 4-4 6-9 7-5-1-9-3-9-7V6z" stroke="currentColor" stroke-width="1.5" stroke-linejoin="round"/>
    <path d="M9 12l2 2 4-4" stroke="currentColor" stroke-width="1.5" stroke-linecap="round" stroke-linejoin="round"/>
  </symbol>

  <symbol id="icon-bank" viewBox="0 0 24 24" fill="none">
    <path d="M3 21h18M3 10h18M5 10V21M19 10V21M12 3L2 10h20L12 3z" stroke="currentColor" stroke-width="1.5" stroke-linecap="round" stroke-linejoin="round"/>
    <path d="M9 14v4M15 14v4M12 14v4" stroke="currentColor" stroke-width="1.5" stroke-linecap="round"/>
  </symbol>

  <symbol id="icon-stocks" viewBox="0 0 24 24" fill="none">
    <path d="M3 17l4-8 4 4 4-9 4 5" stroke="currentColor" stroke-width="1.5" stroke-linecap="round" stroke-linejoin="round"/>
    <path d="M3 21h18" stroke="currentColor" stroke-width="1.5" stroke-linecap="round"/>
  </symbol>

  <symbol id="icon-trade" viewBox="0 0 24 24" fill="none">
    <path d="M8 3H5a2 2 0 0 0-2 2v3m18 0V5a2 2 0 0 0-2-2h-3m0 18h3a2 2 0 0 0 2-2v-3M3 16v3a2 2 0 0 0 2 2h3" stroke="currentColor" stroke-width="1.5" stroke-linecap="round" stroke-linejoin="round"/>
    <path d="M8 12h8M8 12l2-2M8 12l2 2M16 12l-2-2M16 12l-2 2" stroke="currentColor" stroke-width="1.5" stroke-linecap="round" stroke-linejoin="round"/>
  </symbol>

  <symbol id="icon-home" viewBox="0 0 24 24" fill="none">
    <path d="M3 21V10l9-7 9 7v11" stroke="currentColor" stroke-width="1.5" stroke-linejoin="round"/>
    <path d="M3 21h18" stroke="currentColor" stroke-width="1.5" stroke-linecap="round"/>
    <rect x="9" y="14" width="6" height="7" stroke="currentColor" stroke-width="1.5"/>
  </symbol>

  <symbol id="icon-admin" viewBox="0 0 24 24" fill="none">
    <circle cx="12" cy="12" r="3" stroke="currentColor" stroke-width="1.5"/>
    <path d="M12 2v3M12 19v3M4.22 4.22l2.12 2.12M17.66 17.66l2.12 2.12M2 12h3M19 12h3M4.22 19.78l2.12-2.12M17.66 6.34l2.12-2.12" stroke="currentColor" stroke-width="1.5" stroke-linecap="round"/>
  </symbol>

  <symbol id="icon-logout" viewBox="0 0 24 24" fill="none">
    <path d="M9 21H5a2 2 0 0 1-2-2V5a2 2 0 0 1 2-2h4" stroke="currentColor" stroke-width="1.5" stroke-linecap="round" stroke-linejoin="round"/>
    <path d="M16 17l5-5-5-5" stroke="currentColor" stroke-width="1.5" stroke-linecap="round" stroke-linejoin="round"/>
    <path d="M21 12H9" stroke="currentColor" stroke-width="1.5" stroke-linecap="round"/>
  </symbol>

  <symbol id="icon-check" viewBox="0 0 24 24" fill="none">
    <circle cx="12" cy="12" r="9" stroke="currentColor" stroke-width="1.5"/>
    <path d="M8 12l3 3 5-5" stroke="currentColor" stroke-width="1.5" stroke-linecap="round" stroke-linejoin="round"/>
  </symbol>

  <symbol id="icon-warning" viewBox="0 0 24 24" fill="none">
    <path d="M12 3L2 21h20L12 3z" stroke="currentColor" stroke-width="1.5" stroke-linejoin="round"/>
    <path d="M12 10v4M12 17.5v.5" stroke="currentColor" stroke-width="1.5" stroke-linecap="round"/>
  </symbol>

  <symbol id="icon-news-crime" viewBox="0 0 24 24" fill="none">
    <path d="M6 3h12l2 4-8 14L4 7z" stroke="currentColor" stroke-width="1.5" stroke-linejoin="round"/>
    <path d="M4 7h16" stroke="currentColor" stroke-width="1.5" stroke-linecap="round"/>
  </symbol>

  <symbol id="icon-news-shield" viewBox="0 0 24 24" fill="none">
    <path d="M12 3L4 7v5c0 5 4 9.3 8 10.3 4-1 8-5.3 8-10.3V7l-8-4z" stroke="currentColor" stroke-width="1.5" stroke-linejoin="round"/>
    <path d="M9 12l2 2 4-4" stroke="currentColor" stroke-width="1.5" stroke-linecap="round" stroke-linejoin="round"/>
  </symbol>

  <symbol id="icon-construction" viewBox="0 0 24 24" fill="none">
    <path d="M14.7 6.3a1 1 0 0 0 0 1.4l1.6 1.6a1 1 0 0 0 1.4 0l3.77-3.77a6 6 0 0 1-7.94 7.94l-6.91 6.91a2.12 2.12 0 0 1-3-3l6.91-6.91a6 6 0 0 1 7.94-7.94l-3.76 3.76z" stroke="currentColor" stroke-width="1.5" stroke-linecap="round" stroke-linejoin="round"/>
  </symbol>

  <symbol id="icon-no-paywall" viewBox="0 0 24 24" fill="none">
    <rect x="5" y="11" width="14" height="10" rx="2" stroke="currentColor" stroke-width="1.5"/>
    <path d="M8 11V7a4 4 0 0 1 8 0" stroke="currentColor" stroke-width="1.5" stroke-linecap="round"/>
    <path d="M2 2l20 20" stroke="currentColor" stroke-width="1.5" stroke-linecap="round"/>
  </symbol>


  <!-- ── SOCIAL ── -->

  <symbol id="icon-discord" viewBox="0 0 24 24" fill="none">
    <path d="M20.317 4.37a19.791 19.791 0 0 0-4.885-1.515.074.074 0 0 0-.079.037c-.21.375-.444.864-.608 1.25a18.27 18.27 0 0 0-5.487 0 12.64 12.64 0 0 0-.617-1.25.077.077 0 0 0-.079-.037A19.736 19.736 0 0 0 3.677 4.37a.07.07 0 0 0-.032.027C.533 9.046-.32 13.58.099 18.057a.082.082 0 0 0 .031.057 19.9 19.9 0 0 0 5.993 3.03.078.078 0 0 0 .084-.028c.462-.63.874-1.295 1.226-1.994a.076.076 0 0 0-.041-.106 13.107 13.107 0 0 1-1.872-.892.077.077 0 0 1-.008-.128c.126-.094.252-.192.372-.292a.074.074 0 0 1 .077-.01c3.928 1.793 8.18 1.793 12.062 0a.074.074 0 0 1 .078.01c.12.098.246.198.373.292a.077.077 0 0 1-.006.127 12.299 12.299 0 0 1-1.873.892.077.077 0 0 0-.041.107c.36.698.772 1.362 1.225 1.993a.076.076 0 0 0 .084.028 19.839 19.839 0 0 0 6.002-3.03.077.077 0 0 0 .032-.054c.5-5.177-.838-9.674-3.549-13.66a.061.061 0 0 0-.031-.03zM8.02 15.33c-1.183 0-2.157-1.085-2.157-2.419 0-1.333.956-2.419 2.157-2.419 1.21 0 2.176 1.096 2.157 2.42 0 1.333-.956 2.418-2.157 2.418zm7.975 0c-1.183 0-2.157-1.085-2.157-2.419 0-1.333.955-2.419 2.157-2.419 1.21 0 2.176 1.096 2.157 2.42 0 1.333-.946 2.418-2.157 2.418z" fill="currentColor"/>
  </symbol>

  <symbol id="icon-twitter-x" viewBox="0 0 24 24" fill="none">
    <path d="M18.244 2.25h3.308l-7.227 8.26 8.502 11.24H16.17l-5.214-6.817L4.99 21.75H1.68l7.73-8.835L1.254 2.25H8.08l4.713 6.231zm-1.161 17.52h1.833L7.084 4.126H5.117z" fill="currentColor"/>
  </symbol>

  <symbol id="icon-reddit" viewBox="0 0 24 24" fill="none">
    <path d="M12 2C6.48 2 2 6.48 2 12s4.48 10 10 10 10-4.48 10-10S17.52 2 12 2zm6.36 11.08c.1.27.16.56.16.87 0 2.69-3.14 4.87-7 4.87s-7-2.18-7-4.87c0-.31.06-.6.16-.87a1.82 1.82 0 0 1-.66-1.4c0-1 .82-1.82 1.82-1.82.45 0 .87.17 1.19.45 1.16-.72 2.63-1.15 4.22-1.22l.85-3.97a.34.34 0 0 1 .42-.27l2.82.6a1.27 1.27 0 0 1 2.4.44 1.27 1.27 0 0 1-1.27 1.27 1.27 1.27 0 0 1-1.21-.88l-2.52-.53-.75 3.54c1.56.08 3 .51 4.14 1.22.32-.28.74-.45 1.19-.45 1 0 1.82.82 1.82 1.82 0 .55-.24 1.05-.63 1.38z" fill="currentColor"/>
    <circle cx="9.5" cy="13" r="1.2" fill="currentColor"/>
    <circle cx="14.5" cy="13" r="1.2" fill="currentColor"/>
    <path d="M9.5 16.5c.65.65 1.5 1 2.5 1s1.85-.35 2.5-1" stroke="currentColor" stroke-width="1.2" stroke-linecap="round" fill="none"/>
  </symbol>

  <!-- ── THEME TOGGLE ── -->

  <symbol id="icon-theme-light" viewBox="0 0 24 24" fill="none">
    <circle cx="12" cy="12" r="4" stroke="currentColor" stroke-width="1.5"/>
    <path d="M12 2v3M12 19v3M4.22 4.22l2.12 2.12M17.66 17.66l2.12 2.12M2 12h3M19 12h3M4.22 19.78l2.12-2.12M17.66 6.34l2.12-2.12" stroke="currentColor" stroke-width="1.5" stroke-linecap="round"/>
  </symbol>

  <symbol id="icon-theme-dark" viewBox="0 0 24 24" fill="none">
    <path d="M21 12.79A9 9 0 1 1 11.21 3 7 7 0 0 0 21 12.79z" stroke="currentColor" stroke-width="1.5" stroke-linecap="round" stroke-linejoin="round"/>
  </symbol>

  <symbol id="icon-theme-grey" viewBox="0 0 24 24" fill="none">
    <circle cx="12" cy="12" r="9" stroke="currentColor" stroke-width="1.5"/>
    <path d="M12 3v18" stroke="currentColor" stroke-width="1.5"/>
    <path d="M12 3a9 9 0 0 1 0 18" fill="currentColor" opacity="0.3"/>
  </symbol>

  <!-- ── WHY UNDERCITY ── -->

  <symbol id="icon-realtime" viewBox="0 0 24 24" fill="none">
    <path d="M13 2L4.09 12.96A1 1 0 0 0 5 14.5h6.5L11 22l8.91-10.96A1 1 0 0 0 19 9.5H12.5L13 2z" stroke="currentColor" stroke-width="1.5" stroke-linejoin="round"/>
  </symbol>

  <symbol id="icon-fair" viewBox="0 0 24 24" fill="none">
    <path d="M12 3L4 7v5c0 5 4 9.3 8 10.3 4-1 8-5.3 8-10.3V7l-8-4z" stroke="currentColor" stroke-width="1.5" stroke-linejoin="round"/>
    <path d="M9 12l2 2 4-4" stroke="currentColor" stroke-width="1.5" stroke-linecap="round" stroke-linejoin="round"/>
  </symbol>

  <symbol id="icon-freeplay" viewBox="0 0 24 24" fill="none">
    <circle cx="12" cy="12" r="9" stroke="currentColor" stroke-width="1.5"/>
    <path d="M12 3c-2.5 2.5-4 5.5-4 9s1.5 6.5 4 9" stroke="currentColor" stroke-width="1.5" stroke-linecap="round"/>
    <path d="M12 3c2.5 2.5 4 5.5 4 9s-1.5 6.5-4 9" stroke="currentColor" stroke-width="1.5" stroke-linecap="round"/>
    <path d="M3 12h18" stroke="currentColor" stroke-width="1.5" stroke-linecap="round"/>
  </symbol>

  <symbol id="icon-growing" viewBox="0 0 24 24" fill="none">
    <path d="M3 17l4-8 4 4 4-9 4 5" stroke="currentColor" stroke-width="1.5" stroke-linecap="round" stroke-linejoin="round"/>
    <path d="M17 7h4v4" stroke="currentColor" stroke-width="1.5" stroke-linecap="round" stroke-linejoin="round"/>
    <path d="M3 21h18" stroke="currentColor" stroke-width="1.5" stroke-linecap="round"/>
  </symbol>

  <symbol id="icon-privacy" viewBox="0 0 24 24" fill="none">
    <rect x="5" y="11" width="14" height="10" rx="2" stroke="currentColor" stroke-width="1.5"/>
    <path d="M8 11V7a4 4 0 0 1 8 0v4" stroke="currentColor" stroke-width="1.5" stroke-linecap="round"/>
    <circle cx="12" cy="16" r="1.5" fill="currentColor"/>
  </symbol>

  <symbol id="icon-mobile" viewBox="0 0 24 24" fill="none">
    <rect x="7" y="2" width="10" height="20" rx="2" stroke="currentColor" stroke-width="1.5"/>
    <path d="M11 18h2" stroke="currentColor" stroke-width="1.5" stroke-linecap="round"/>
    <path d="M7 6h10" stroke="currentColor" stroke-width="1.5"/>
  </symbol>

  <symbol id="icon-strategy" viewBox="0 0 24 24" fill="none">
    <path d="M9.5 2A5.5 5.5 0 0 0 4 7.5c0 .98.26 1.9.71 2.69A3.5 3.5 0 0 0 7.5 16.5H8v3h8v-3h.5a3.5 3.5 0 0 0 2.79-6.31A5.5 5.5 0 0 0 14.5 2h-5z" stroke="currentColor" stroke-width="1.5" stroke-linejoin="round"/>
    <path d="M10 22h4M12 8v4M10 10h4" stroke="currentColor" stroke-width="1.5" stroke-linecap="round"/>
  </symbol>

  <symbol id="icon-timer" viewBox="0 0 24 24" fill="none">
    <circle cx="12" cy="13" r="8" stroke="currentColor" stroke-width="1.5"/>
    <path d="M12 9v4l2.5 2.5" stroke="currentColor" stroke-width="1.5" stroke-linecap="round" stroke-linejoin="round"/>
    <path d="M10 2h4" stroke="currentColor" stroke-width="1.5" stroke-linecap="round"/>
    <path d="M12 2v2" stroke="currentColor" stroke-width="1.5" stroke-linecap="round"/>
  </symbol>

  <symbol id="icon-fire" viewBox="0 0 24 24" fill="none">
    <path d="M12 2c.5 2-2 4.5-2 7a4 4 0 0 0 8 0c0-2-1-3.5-2-5 1 1.5 3 4 3 7a7 7 0 1 1-14 0c0-4 3-7.5 5-9.5C10.5 2 11.5 2 12 2z" stroke="currentColor" stroke-width="1.5" stroke-linejoin="round"/>
  </symbol>

  <!-- ── NAVIGATION ── -->

  <symbol id="icon-chevron-left" viewBox="0 0 24 24" fill="none">
    <path d="M15 18l-6-6 6-6" stroke="currentColor" stroke-width="1.5" stroke-linecap="round" stroke-linejoin="round"/>
  </symbol>

  <symbol id="icon-chevron-right" viewBox="0 0 24 24" fill="none">
    <path d="M9 6l6 6-6 6" stroke="currentColor" stroke-width="1.5" stroke-linecap="round" stroke-linejoin="round"/>
  </symbol>

  <symbol id="icon-chevron-down" viewBox="0 0 24 24" fill="none">
    <path d="M6 9l6 6 6-6" stroke="currentColor" stroke-width="1.5" stroke-linecap="round" stroke-linejoin="round"/>
  </symbol>

  <symbol id="icon-strength" viewBox="0 0 24 24" fill="none">
    <rect x="9" y="2" width="2" height="20" stroke="currentColor" stroke-width="1.5" rx="1"/>
    <rect x="4" y="4" width="4" height="16" stroke="currentColor" stroke-width="1.5" rx="1"/>
    <rect x="16" y="4" width="4" height="16" stroke="currentColor" stroke-width="1.5" rx="1"/>
    <path d="M4 12h-2M22 12h-2" stroke="currentColor" stroke-width="1.5" stroke-linecap="round"/>
  </symbol>

  <symbol id="icon-speed" viewBox="0 0 24 24" fill="none">
    <path d="M13 2L4 14h7l-1 8 9-12h-7z" stroke="currentColor" stroke-width="1.5" stroke-linejoin="round"/>
  </symbol>

  <symbol id="icon-defense" viewBox="0 0 24 24" fill="none">
    <path d="M12 2l8 4v6c0 5-3.5 9.5-8 10-4.5-.5-8-5-8-10V6z" stroke="currentColor" stroke-width="1.5" stroke-linejoin="round"/>
    <path d="M9 12l2 2 4-4" stroke="currentColor" stroke-width="1.5" stroke-linecap="round" stroke-linejoin="round"/>
  </symbol>

  <symbol id="icon-dexterity" viewBox="0 0 24 24" fill="none">
    <circle cx="12" cy="12" r="3" stroke="currentColor" stroke-width="1.5"/>
    <circle cx="12" cy="12" r="9" stroke="currentColor" stroke-width="1.5" stroke-dasharray="3 3"/>
    <path d="M12 2v3M12 19v3M2 12h3M19 12h3" stroke="currentColor" stroke-width="1.5" stroke-linecap="round"/>
  </symbol>

  <symbol id="icon-player" viewBox="0 0 24 24" fill="none">
    <circle cx="12" cy="7" r="4" stroke="currentColor" stroke-width="1.5"/>
    <path d="M4 21c0-4.5 3.6-8 8-8s8 3.5 8 8" stroke="currentColor" stroke-width="1.5" stroke-linecap="round"/>
  </symbol>

  <symbol id="icon-coinflip" viewBox="0 0 24 24" fill="none">
    <circle cx="12" cy="12" r="10" stroke="currentColor" stroke-width="1.5"/>
    <path d="M12 2v20M8 8l4-4 4 4M8 16l4 4 4-4" stroke="currentColor" stroke-width="1.5" stroke-linecap="round" stroke-linejoin="round"/>
  </symbol>

  <symbol id="icon-roulette" viewBox="0 0 24 24" fill="none">
    <circle cx="12" cy="12" r="9" stroke="currentColor" stroke-width="1.5"/>
    <circle cx="12" cy="12" r="2" stroke="currentColor" stroke-width="1.5"/>
    <path d="M12 3v2M12 19v2M3 12h2M19 12h2" stroke="currentColor" stroke-width="1.5" stroke-linecap="round"/>
    <path d="M5.5 5.5l1.5 1.5M17 17l1.5 1.5M5.5 18.5l1.5-1.5M17 7l1.5-1.5" stroke="currentColor" stroke-width="1.5" stroke-linecap="round"/>
  </symbol>

  <symbol id="icon-slots" viewBox="0 0 24 24" fill="none">
    <rect x="2" y="4" width="6" height="16" rx="1" stroke="currentColor" stroke-width="1.5"/>
    <rect x="9" y="4" width="6" height="16" rx="1" stroke="currentColor" stroke-width="1.5"/>
    <rect x="16" y="4" width="6" height="16" rx="1" stroke="currentColor" stroke-width="1.5"/>
    <path d="M5 9h0M5 12h0M5 15h0M12 9h0M12 12h0M12 15h0M19 9h0M19 12h0M19 15h0" stroke="currentColor" stroke-width="2" stroke-linecap="round"/>
  </symbol>

</svg>
